<?xml version="1.0" encoding="utf-8"?>
<!-- Generator: Adobe Illustrator 26.3.1, SVG Export Plug-In . SVG Version: 6.00 Build 0)  -->
<svg version="1.1" id="Layer_1" xmlns="http://www.w3.org/2000/svg" xmlns:xlink="http://www.w3.org/1999/xlink" x="0px" y="0px"
	 viewBox="0 0 1210 162" style="enable-background:new 0 0 1210 162;" xml:space="preserve">
<style type="text/css">
	.st0{fill:none;stroke:#000000;stroke-width:6;stroke-miterlimit:10;}
	.st1{enable-background:new    ;}
	.st2{fill:#231F20;}
</style>
<g id="_YOUR_TEXT_HERE_">
	<path class="st0" d="M160.3,81c0,41.5-33.7,75.1-75.3,75.1c-41.6,0-75.3-33.6-75.3-75.1S43.4,6,85,6c0,0,0,0,0,0
		c41.5-0.1,75.2,33.4,75.3,74.8C160.3,80.9,160.3,81,160.3,81z"/>
	<ellipse class="st0" cx="85" cy="81.1" rx="33.9" ry="74.2"/>
	<line class="st0" x1="9.8" y1="81.1" x2="160.1" y2="81.1"/>
	<path class="st0" d="M133.3,138.7c-28,23.3-68.7,23.3-96.6,0c4.2-8.6,10.7-15.9,18.7-21.2c8.5-5.6,18.6-6.5,29.6-6.5
		s21.1,0.9,29.6,6.5C122.6,122.7,129,130.1,133.3,138.7z"/>
	<path class="st0" d="M36.6,23.5c28-23.3,68.7-23.3,96.6,0c-4.2,8.6-10.7,16-18.7,21.3c-8.5,5.6-18.6,5.9-29.6,5.9
		s-21.1-0.3-29.6-5.9C47.3,39.5,40.9,32.2,36.6,23.5z"/>
	<g>
		<g class="st1">
			<path class="st2" d="M209.1,137.5V22.9h12.4v114.5H209.1z M217.2,91.5V80.7h33.7c4.8,0,9-0.9,12.8-2.8c3.7-1.9,6.7-4.6,8.8-8.1
				c2.1-3.5,3.2-7.7,3.2-12.6c0-4.9-1.1-9.1-3.2-12.6c-2.1-3.5-5-6.2-8.8-8.1c-3.7-1.9-8-2.8-12.8-2.8h-33.7V22.9h34.7
				c6.9,0,13.1,1.4,18.5,4.2c5.5,2.8,9.8,6.8,12.9,12c3.2,5.2,4.8,11.2,4.8,18.1c0,7-1.6,13-4.8,18.1c-3.2,5.1-7.5,9.1-12.9,11.9
				c-5.5,2.8-11.6,4.2-18.5,4.2H217.2z"/>
			<path class="st2" d="M315.4,137.5V22.9h12.4v114.5H315.4z M323.4,86.3V75.9h33.2c7.6,0,13.4-1.9,17.5-5.7
				c4.1-3.8,6.1-8.9,6.1-15.2c0-6.2-2-11.3-6-15.2c-4-3.9-9.8-5.9-17.4-5.9h-33.4V22.9h33.4c7.5,0,13.9,1.4,19.2,4.1
				c5.3,2.7,9.4,6.5,12.3,11.2c2.8,4.8,4.3,10.2,4.3,16.3c0,6.4-1.4,12-4.3,16.7c-2.8,4.7-6.9,8.4-12.3,11.1c-5.3,2.7-11.7,4-19.2,4
				H323.4z M384.8,137.5l-43.1-52.9l12-3.8l46.9,56.8H384.8z"/>
			<path class="st2" d="M425.8,137.5V22.9h12.4v114.5H425.8z M433.9,34.1V22.9h66.6v11.2H433.9z M433.9,84.2V73.4h62.3v10.8H433.9z
				 M433.9,137.5v-11.2h67.6v11.2H433.9z"/>
			<path class="st2" d="M521.6,129.3l67.1-98.2h14.5l-67.1,98.2H521.6z M521.6,137.5v-8.2l10.5-3H602v11.2H521.6z M524.8,34.1V22.9
				h78.5v8.2l-10.7,3H524.8z"/>
			<path class="st2" d="M630.2,137.5V22.9h12.4v114.5H630.2z M638.4,34.1V22.9H705v11.2H638.4z M638.4,84.2V73.4h62.3v10.8H638.4z
				 M638.4,137.5v-11.2H706v11.2H638.4z"/>
			<path class="st2" d="M733.4,137.5V22.9h8.9l3.5,14.5v100.1H733.4z M812.9,137.5l-72.5-98.2l1.8-16.3l72.5,98.2L812.9,137.5z
				 M812.9,137.5l-3.5-13.8V22.9h12.4v114.5H812.9z"/>
			<path class="st2" d="M847.1,34.1V22.9h93.4v11.2H847.1z M887.7,137.5V26.1h12.4v111.4H887.7z"/>
			<path class="st2" d="M965.9,137.5V22.9h12.4v114.5H965.9z"/>
			<path class="st2" d="M1049.7,137.5l-45.8-114.5h13.4l39.6,101.1h-4.8l39.7-101.1h13.2l-46.1,114.5H1049.7z"/>
			<path class="st2" d="M1130.5,137.5V22.9h12.4v114.5H1130.5z M1138.7,34.1V22.9h66.6v11.2H1138.7z M1138.7,84.2V73.4h62.3v10.8
				H1138.7z M1138.7,137.5v-11.2h67.6v11.2H1138.7z"/>
		</g>
	</g>
</g>
</svg>
